<?xml version="1.0" encoding="utf-8"?>
<!-- Generator: Adobe Illustrator 20.0.0, SVG Export Plug-In . SVG Version: 6.00 Build 0)  -->
<svg version="1.1" id="Layer_1" xmlns="http://www.w3.org/2000/svg" xmlns:xlink="http://www.w3.org/1999/xlink" x="0px" y="0px"
	 viewBox="0 0 63.3 139.9" style="enable-background:new 0 0 63.3 139.9;" xml:space="preserve">
<style type="text/css">
	.st0{fill:#020203;}
</style>
<path class="st0" d="M63.4,67.1c-4.2-10.8-7.9-21.8-12-32.7c-3.2-8.4-5.8-10.5-13.8-10.7v-2.7c3.2-2,5.4-5.6,5.4-9.6
	c0-6-5.4-11.2-11.7-11.3C25.1-0.1,19.9,5.2,20,11.5c0,4.2,2.1,7.6,5.4,9.5v2.6c-7.6,0.3-10.4,2.6-13.4,10.5C8,45,4.2,55.9,0,66.8
	C-1.4,70.3-0.5,72,2.9,73c3.1,1,5.2,1,6.3-2.9c2.6-8.7,5.7-17.3,8.8-25.9c0.5-1.3,1.8-2.3,2.7-3.5c0.1,1.6,0.7,3.2,0.3,4.7
	c-1,3.9-2.3,7.6-3.6,11.4C14,67.9,10.4,79.1,6.5,91c3.1,0,5.4,0.3,7.6-0.1c4.5-0.6,5.6,1.3,5.5,5.6c-0.3,12.3,0,24.7-0.1,37
	c-0.1,3.8,0.8,6.1,5.1,6.1c4.1,0,5.3-2.2,5.2-6.1c-0.2-11.7-0.1-23.3,0-35c0-2,0.5-4,0.7-6.1c0.6-0.1,1.3-0.2,1.9-0.2
	c0.5,1.9,1.3,3.9,1.3,5.8c0.1,12.2,0.2,24.3,0,36.5c-0.1,3.8,1.6,5.2,5,5c3-0.2,5.5-0.8,5.3-4.9c-0.2-6.5-0.1-13-0.1-19.5
	c0-8,0-15.9,0-24.2c4.3,0,8.1,0,12.6,0c-0.6-2.1-0.9-3.4-1.3-4.6c-4.4-13.6-8.8-27.1-13.1-40.7c-0.5-1.5,0-3.2,0-4.8
	c1.1,1.3,2.8,2.4,3.3,4c3,8.4,5.8,16.9,8.5,25.5c1.2,3.8,3.4,3.8,6.5,2.7C63.6,71.9,64.7,70.5,63.4,67.1z"/>
</svg>
