<?xml version="1.0" encoding="utf-8"?>
<!-- Generator: Adobe Illustrator 20.0.0, SVG Export Plug-In . SVG Version: 6.00 Build 0)  -->
<svg version="1.1" id="Layer_1" xmlns="http://www.w3.org/2000/svg" xmlns:xlink="http://www.w3.org/1999/xlink" x="0px" y="0px"
	 viewBox="0 0 56 140.4" style="enable-background:new 0 0 56 140.4;" xml:space="preserve">
<path d="M55.7,37.9c-0.1-8.4-5.1-13.1-13.6-13.3c-2.8-0.1-5.6-0.1-8.5-0.1v-3.4c3.3-1.9,5.5-5.4,5.5-9.7C39.1,5,34-0.1,27.8,0
	c-6.3,0-11.5,5.1-11.5,11.3c0,4,2,7.5,5.1,9.5v3.7c-2.4,0-4.9,0.1-7.3,0.1C5,24.8,0.2,29.5,0,38.5c-0.2,11.7,0.1,23.3-0.1,35
	c0,3.7,2.1,4.8,4.9,4.8c2.9,0,5.5-0.8,5.3-4.9c-0.3-6.5-0.1-13-0.1-19.5c0-3.3-0.1-6.7,0.1-10c0.1-0.8,1.3-1.5,2-2.3
	c0.6,0.8,1.6,1.5,1.8,2.4c0.3,1.3,0.1,2.7,0.1,4c0,28.3,0,56.7,0,85c0,6.4,1.1,7.6,6.2,7.6c5.7,0,5.5-3.7,5.5-7.8
	c-0.2-15.3-0.1-30.7-0.1-46c0-1.5-0.1-3.1,0.3-4.5c0.3-0.8,1.4-1.7,2.3-1.9c0.4-0.2,1.6,1,1.8,1.8c0.4,1.5,0.3,3,0.3,4.5
	c0.1,16,0.2,32,0,48c0,4.1,1.6,5.8,5.5,5.8c4,0,6.4-1.1,6.3-6C41.8,120,42,105.5,42,91c0-15-0.1-30-0.1-45.1c0-1.5,1.2-2.9,1.8-4.4
	c0.7,1.5,2,2.9,2,4.3c0.1,9.3,0.2,18.7,0,28c0,4,2.7,4.4,5.3,4.4c2.4,0,4.8-0.7,4.8-4.3C55.7,61.9,56,49.9,55.7,37.9z"/>
</svg>
